<svg xmlns="http://www.w3.org/2000/svg" version="1.1" xmlns:xlink="http://www.w3.org/1999/xlink" width="24" height="24"><svg xmlns="http://www.w3.org/2000/svg" width="24" height="24" viewBox="0 0 24 24" fill="none" stroke="currentColor" stroke-width="2" stroke-linecap="round" stroke-linejoin="round" class="lucide lucide-scroll h-8 w-8 text-primary"><path d="M19 17V5a2 2 0 0 0-2-2H4"></path><path d="M8 21h12a2 2 0 0 0 2-2v-1a1 1 0 0 0-1-1H11a1 1 0 0 0-1 1v1a2 2 0 1 1-4 0V5a2 2 0 1 0-4 0v2a1 1 0 0 0 1 1h3"></path></svg><style>@media (prefers-color-scheme: light) { :root { filter: contrast(1) brightness(0.3); } }
@media (prefers-color-scheme: dark) { :root { filter: contrast(0.5405405405405405) brightness(3); } }
</style></svg>